<mxfile host="app.diagrams.net" modified="2023-04-13T03:04:06.828Z" agent="Mozilla/5.0 (Windows NT 10.0; Win64; x64) AppleWebKit/537.36 (KHTML, like Gecko) Chrome/112.0.0.0 Safari/537.36 Edg/112.0.1722.39" etag="_mxT_wlcbdBSwATAjbGE" version="21.1.5" type="google">
  <diagram name="Página-1" id="JitoqBSqcaN8j0vDBjs7">
    <mxGraphModel dx="1096" dy="276" grid="1" gridSize="10" guides="1" tooltips="1" connect="1" arrows="1" fold="1" page="1" pageScale="1" pageWidth="1169" pageHeight="827" math="0" shadow="0">
      <root>
        <mxCell id="0" />
        <mxCell id="1" parent="0" />
        <mxCell id="wFfAjpzP0tCW5-WHGNMk-9" value="Adicao" style="swimlane;whiteSpace=wrap;html=1;" vertex="1" parent="1">
          <mxGeometry x="135" y="360" width="210" height="80" as="geometry" />
        </mxCell>
        <mxCell id="wFfAjpzP0tCW5-WHGNMk-11" value="+calcular(numero1:int,numero2:int): float" style="text;html=1;strokeColor=none;fillColor=none;align=center;verticalAlign=middle;whiteSpace=wrap;rounded=0;" vertex="1" parent="wFfAjpzP0tCW5-WHGNMk-9">
          <mxGeometry y="40" width="210" height="30" as="geometry" />
        </mxCell>
        <mxCell id="uBGwrHAVaLRpdLeFyeM2-25" value="Calculadora Herança e Polimorfismo" style="text;strokeColor=none;fillColor=none;align=left;verticalAlign=top;spacingLeft=4;spacingRight=4;overflow=hidden;rotatable=0;points=[[0,0.5],[1,0.5]];portConstraint=eastwest;whiteSpace=wrap;html=1;fontSize=20;" parent="1" vertex="1">
          <mxGeometry x="470" y="100" width="340" height="26" as="geometry" />
        </mxCell>
        <mxCell id="uBGwrHAVaLRpdLeFyeM2-30" value="" style="verticalLabelPosition=top;verticalAlign=bottom;shape=process;whiteSpace=wrap;rounded=0;size=0.23;arcSize=6;direction=south;glass=0;html=1;labelPosition=center;align=center;" parent="1" vertex="1">
          <mxGeometry x="490" y="170" width="260" height="110" as="geometry" />
        </mxCell>
        <mxCell id="uBGwrHAVaLRpdLeFyeM2-31" value="Operação" style="text;strokeColor=none;fillColor=none;align=left;verticalAlign=top;spacingLeft=4;spacingRight=4;overflow=hidden;rotatable=0;points=[[0,0.5],[1,0.5]];portConstraint=eastwest;whiteSpace=wrap;html=1;" parent="1" vertex="1">
          <mxGeometry x="585" y="170" width="70" height="26" as="geometry" />
        </mxCell>
        <mxCell id="uBGwrHAVaLRpdLeFyeM2-32" value="+ numero 1: int&lt;br&gt;&lt;br&gt;+ numero 2: int" style="text;strokeColor=none;fillColor=none;align=left;verticalAlign=top;spacingLeft=4;spacingRight=4;overflow=hidden;rotatable=0;points=[[0,0.5],[1,0.5]];portConstraint=eastwest;whiteSpace=wrap;html=1;" parent="1" vertex="1">
          <mxGeometry x="490" y="201" width="160" height="48" as="geometry" />
        </mxCell>
        <mxCell id="uBGwrHAVaLRpdLeFyeM2-33" value="+ Calcular (numero1:int,numero2:int): float" style="text;strokeColor=none;fillColor=none;align=left;verticalAlign=top;spacingLeft=4;spacingRight=4;overflow=hidden;rotatable=0;points=[[0,0.5],[1,0.5]];portConstraint=eastwest;whiteSpace=wrap;html=1;" parent="1" vertex="1">
          <mxGeometry x="490" y="254" width="250" height="26" as="geometry" />
        </mxCell>
        <mxCell id="wFfAjpzP0tCW5-WHGNMk-18" value="" style="edgeStyle=orthogonalEdgeStyle;rounded=0;orthogonalLoop=1;jettySize=auto;html=1;entryX=-0.018;entryY=0.181;entryDx=0;entryDy=0;entryPerimeter=0;" edge="1" parent="1" source="uBGwrHAVaLRpdLeFyeM2-40" target="uBGwrHAVaLRpdLeFyeM2-32">
          <mxGeometry relative="1" as="geometry">
            <mxPoint x="480" y="211" as="targetPoint" />
          </mxGeometry>
        </mxCell>
        <mxCell id="uBGwrHAVaLRpdLeFyeM2-40" value="Calculadora" style="swimlane;childLayout=stackLayout;horizontal=1;startSize=36;horizontalStack=0;rounded=0;fontSize=14;fontStyle=0;strokeWidth=1;resizeParent=0;resizeLast=1;shadow=0;align=center;arcSize=4;whiteSpace=wrap;html=1;fontColor=default;strokeColor=default;" parent="1" vertex="1">
          <mxGeometry x="160" y="108" width="160" height="150" as="geometry" />
        </mxCell>
        <mxCell id="wFfAjpzP0tCW5-WHGNMk-2" value="+ main (): void" style="text;html=1;strokeColor=none;fillColor=none;align=left;verticalAlign=bottom;whiteSpace=wrap;rounded=0;" vertex="1" parent="uBGwrHAVaLRpdLeFyeM2-40">
          <mxGeometry y="36" width="160" height="90" as="geometry" />
        </mxCell>
        <mxCell id="uBGwrHAVaLRpdLeFyeM2-41" value="&lt;div style=&quot;line-height: 190%;&quot;&gt;&lt;br&gt;&lt;/div&gt;" style="align=left;strokeColor=none;fillColor=none;spacingLeft=4;fontSize=12;verticalAlign=top;resizable=0;rotatable=0;part=1;html=1;" parent="uBGwrHAVaLRpdLeFyeM2-40" vertex="1">
          <mxGeometry y="126" width="160" height="84" as="geometry" />
        </mxCell>
        <mxCell id="uBGwrHAVaLRpdLeFyeM2-42" value="+ main(): void" style="text;strokeColor=none;fillColor=none;align=left;verticalAlign=top;spacingLeft=4;spacingRight=4;overflow=hidden;rotatable=0;points=[[0,0.5],[1,0.5]];portConstraint=eastwest;whiteSpace=wrap;html=1;" parent="uBGwrHAVaLRpdLeFyeM2-40" vertex="1">
          <mxGeometry y="210" width="160" height="-60" as="geometry" />
        </mxCell>
        <mxCell id="wFfAjpzP0tCW5-WHGNMk-23" value="" style="edgeStyle=orthogonalEdgeStyle;rounded=0;orthogonalLoop=1;jettySize=auto;html=1;" edge="1" parent="1" source="wFfAjpzP0tCW5-WHGNMk-54" target="uBGwrHAVaLRpdLeFyeM2-33">
          <mxGeometry relative="1" as="geometry">
            <Array as="points">
              <mxPoint x="515" y="290" />
            </Array>
          </mxGeometry>
        </mxCell>
        <mxCell id="wFfAjpzP0tCW5-WHGNMk-56" value="" style="edgeStyle=orthogonalEdgeStyle;rounded=0;orthogonalLoop=1;jettySize=auto;html=1;" edge="1" parent="1" source="wFfAjpzP0tCW5-WHGNMk-12" target="wFfAjpzP0tCW5-WHGNMk-54">
          <mxGeometry relative="1" as="geometry" />
        </mxCell>
        <mxCell id="wFfAjpzP0tCW5-WHGNMk-12" value="Subtracao" style="swimlane;whiteSpace=wrap;html=1;" vertex="1" parent="1">
          <mxGeometry x="400" y="400" width="230" height="80" as="geometry" />
        </mxCell>
        <mxCell id="wFfAjpzP0tCW5-WHGNMk-13" value="+ calcular(numero1:int,numero2:int): float" style="text;html=1;strokeColor=none;fillColor=none;align=center;verticalAlign=middle;whiteSpace=wrap;rounded=0;" vertex="1" parent="wFfAjpzP0tCW5-WHGNMk-12">
          <mxGeometry y="44" width="230" height="30" as="geometry" />
        </mxCell>
        <mxCell id="wFfAjpzP0tCW5-WHGNMk-25" value="" style="edgeStyle=orthogonalEdgeStyle;rounded=0;orthogonalLoop=1;jettySize=auto;html=1;entryX=0;entryY=0.5;entryDx=0;entryDy=0;" edge="1" parent="1" source="wFfAjpzP0tCW5-WHGNMk-50" target="uBGwrHAVaLRpdLeFyeM2-33">
          <mxGeometry relative="1" as="geometry">
            <mxPoint x="380" y="280" as="targetPoint" />
            <Array as="points">
              <mxPoint x="380" y="267" />
            </Array>
          </mxGeometry>
        </mxCell>
        <mxCell id="wFfAjpzP0tCW5-WHGNMk-53" value="" style="edgeStyle=orthogonalEdgeStyle;rounded=0;orthogonalLoop=1;jettySize=auto;html=1;entryX=0.5;entryY=1;entryDx=0;entryDy=0;" edge="1" parent="1" source="wFfAjpzP0tCW5-WHGNMk-14" target="wFfAjpzP0tCW5-WHGNMk-50">
          <mxGeometry relative="1" as="geometry">
            <mxPoint x="380" y="470" as="targetPoint" />
            <Array as="points">
              <mxPoint x="380" y="470" />
              <mxPoint x="380" y="470" />
            </Array>
          </mxGeometry>
        </mxCell>
        <mxCell id="wFfAjpzP0tCW5-WHGNMk-14" value="Multiplicacao" style="swimlane;whiteSpace=wrap;html=1;" vertex="1" parent="1">
          <mxGeometry x="190" y="510" width="230" height="90" as="geometry" />
        </mxCell>
        <mxCell id="wFfAjpzP0tCW5-WHGNMk-15" value="+ calcular(numero1:int,numero2:int):float" style="text;html=1;strokeColor=none;fillColor=none;align=center;verticalAlign=middle;whiteSpace=wrap;rounded=0;" vertex="1" parent="wFfAjpzP0tCW5-WHGNMk-14">
          <mxGeometry x="-5" y="40" width="235" height="30" as="geometry" />
        </mxCell>
        <mxCell id="wFfAjpzP0tCW5-WHGNMk-66" value="" style="edgeStyle=orthogonalEdgeStyle;rounded=0;orthogonalLoop=1;jettySize=auto;html=1;" edge="1" parent="1" source="wFfAjpzP0tCW5-WHGNMk-16" target="wFfAjpzP0tCW5-WHGNMk-60">
          <mxGeometry relative="1" as="geometry">
            <Array as="points">
              <mxPoint x="840" y="390" />
              <mxPoint x="840" y="390" />
            </Array>
          </mxGeometry>
        </mxCell>
        <mxCell id="wFfAjpzP0tCW5-WHGNMk-16" value="Divisao" style="swimlane;whiteSpace=wrap;html=1;" vertex="1" parent="1">
          <mxGeometry x="720" y="405" width="210" height="70" as="geometry" />
        </mxCell>
        <mxCell id="wFfAjpzP0tCW5-WHGNMk-28" value="+ calcular(numero1:int,numero2:int): float" style="text;html=1;strokeColor=none;fillColor=none;align=center;verticalAlign=middle;whiteSpace=wrap;rounded=0;" vertex="1" parent="wFfAjpzP0tCW5-WHGNMk-16">
          <mxGeometry y="35" width="210" height="30" as="geometry" />
        </mxCell>
        <mxCell id="wFfAjpzP0tCW5-WHGNMk-37" value="" style="edgeStyle=orthogonalEdgeStyle;rounded=0;orthogonalLoop=1;jettySize=auto;html=1;entryX=1;entryY=0.25;entryDx=0;entryDy=0;" edge="1" parent="1" source="wFfAjpzP0tCW5-WHGNMk-57" target="uBGwrHAVaLRpdLeFyeM2-30">
          <mxGeometry relative="1" as="geometry">
            <mxPoint x="650" y="300" as="targetPoint" />
            <Array as="points">
              <mxPoint x="680" y="320" />
              <mxPoint x="680" y="320" />
            </Array>
          </mxGeometry>
        </mxCell>
        <mxCell id="wFfAjpzP0tCW5-WHGNMk-59" value="" style="edgeStyle=orthogonalEdgeStyle;rounded=0;orthogonalLoop=1;jettySize=auto;html=1;" edge="1" parent="1" source="wFfAjpzP0tCW5-WHGNMk-34" target="wFfAjpzP0tCW5-WHGNMk-57">
          <mxGeometry relative="1" as="geometry">
            <Array as="points">
              <mxPoint x="680" y="510" />
              <mxPoint x="680" y="510" />
            </Array>
          </mxGeometry>
        </mxCell>
        <mxCell id="wFfAjpzP0tCW5-WHGNMk-34" value="Fatorial" style="swimlane;whiteSpace=wrap;html=1;" vertex="1" parent="1">
          <mxGeometry x="520" y="530" width="230" height="80" as="geometry" />
        </mxCell>
        <mxCell id="wFfAjpzP0tCW5-WHGNMk-35" value="+ calcular(numero1:int,numero2:int): float" style="text;html=1;strokeColor=none;fillColor=none;align=center;verticalAlign=middle;whiteSpace=wrap;rounded=0;" vertex="1" parent="wFfAjpzP0tCW5-WHGNMk-34">
          <mxGeometry y="30" width="230" height="30" as="geometry" />
        </mxCell>
        <mxCell id="wFfAjpzP0tCW5-WHGNMk-69" value="" style="edgeStyle=orthogonalEdgeStyle;rounded=0;orthogonalLoop=1;jettySize=auto;html=1;entryX=0.5;entryY=1;entryDx=0;entryDy=0;" edge="1" parent="1" source="wFfAjpzP0tCW5-WHGNMk-38" target="wFfAjpzP0tCW5-WHGNMk-67">
          <mxGeometry relative="1" as="geometry">
            <Array as="points">
              <mxPoint x="960" y="430" />
              <mxPoint x="960" y="430" />
            </Array>
          </mxGeometry>
        </mxCell>
        <mxCell id="wFfAjpzP0tCW5-WHGNMk-38" value="Exponenciacao" style="swimlane;whiteSpace=wrap;html=1;" vertex="1" parent="1">
          <mxGeometry x="810" y="540" width="210" height="70" as="geometry" />
        </mxCell>
        <mxCell id="wFfAjpzP0tCW5-WHGNMk-39" value="+ calcular(numero1:int,numero2:int): float" style="text;html=1;strokeColor=none;fillColor=none;align=center;verticalAlign=middle;whiteSpace=wrap;rounded=0;" vertex="1" parent="wFfAjpzP0tCW5-WHGNMk-38">
          <mxGeometry y="30" width="210" height="30" as="geometry" />
        </mxCell>
        <mxCell id="wFfAjpzP0tCW5-WHGNMk-44" value="child" style="text;html=1;strokeColor=none;fillColor=none;align=center;verticalAlign=middle;whiteSpace=wrap;rounded=0;" vertex="1" parent="1">
          <mxGeometry x="430" y="180" width="60" height="30" as="geometry" />
        </mxCell>
        <mxCell id="wFfAjpzP0tCW5-WHGNMk-47" value="parent" style="text;html=1;strokeColor=none;fillColor=none;align=center;verticalAlign=middle;whiteSpace=wrap;rounded=0;" vertex="1" parent="1">
          <mxGeometry x="320" y="150" width="60" height="30" as="geometry" />
        </mxCell>
        <mxCell id="wFfAjpzP0tCW5-WHGNMk-49" value="" style="edgeStyle=orthogonalEdgeStyle;rounded=0;orthogonalLoop=1;jettySize=auto;html=1;exitX=0.5;exitY=0;exitDx=0;exitDy=0;" edge="1" parent="1" source="wFfAjpzP0tCW5-WHGNMk-9" target="wFfAjpzP0tCW5-WHGNMk-48">
          <mxGeometry relative="1" as="geometry">
            <mxPoint x="240" y="360" as="sourcePoint" />
            <mxPoint x="620" y="280" as="targetPoint" />
          </mxGeometry>
        </mxCell>
        <mxCell id="wFfAjpzP0tCW5-WHGNMk-52" value="" style="edgeStyle=orthogonalEdgeStyle;rounded=0;orthogonalLoop=1;jettySize=auto;html=1;entryX=0;entryY=0.5;entryDx=0;entryDy=0;" edge="1" parent="1" source="wFfAjpzP0tCW5-WHGNMk-48" target="uBGwrHAVaLRpdLeFyeM2-32">
          <mxGeometry relative="1" as="geometry">
            <mxPoint x="320" y="210" as="targetPoint" />
            <Array as="points">
              <mxPoint x="340" y="225" />
            </Array>
          </mxGeometry>
        </mxCell>
        <mxCell id="wFfAjpzP0tCW5-WHGNMk-48" value="Extends" style="text;html=1;strokeColor=none;fillColor=none;align=center;verticalAlign=middle;whiteSpace=wrap;rounded=0;" vertex="1" parent="1">
          <mxGeometry x="310" y="300" width="60" height="30" as="geometry" />
        </mxCell>
        <mxCell id="wFfAjpzP0tCW5-WHGNMk-50" value="Extends" style="text;html=1;strokeColor=none;fillColor=none;align=center;verticalAlign=middle;whiteSpace=wrap;rounded=0;" vertex="1" parent="1">
          <mxGeometry x="350" y="350" width="60" height="30" as="geometry" />
        </mxCell>
        <mxCell id="wFfAjpzP0tCW5-WHGNMk-54" value="Extends" style="text;html=1;strokeColor=none;fillColor=none;align=center;verticalAlign=middle;whiteSpace=wrap;rounded=0;" vertex="1" parent="1">
          <mxGeometry x="485" y="330" width="60" height="30" as="geometry" />
        </mxCell>
        <mxCell id="wFfAjpzP0tCW5-WHGNMk-57" value="Extends" style="text;html=1;strokeColor=none;fillColor=none;align=center;verticalAlign=middle;whiteSpace=wrap;rounded=0;" vertex="1" parent="1">
          <mxGeometry x="650" y="410" width="60" height="30" as="geometry" />
        </mxCell>
        <mxCell id="wFfAjpzP0tCW5-WHGNMk-63" value="" style="edgeStyle=orthogonalEdgeStyle;rounded=0;orthogonalLoop=1;jettySize=auto;html=1;entryX=0.75;entryY=0;entryDx=0;entryDy=0;" edge="1" parent="1" source="wFfAjpzP0tCW5-WHGNMk-60" target="uBGwrHAVaLRpdLeFyeM2-30">
          <mxGeometry relative="1" as="geometry">
            <mxPoint x="820" y="259" as="targetPoint" />
            <Array as="points">
              <mxPoint x="830" y="252" />
            </Array>
          </mxGeometry>
        </mxCell>
        <mxCell id="wFfAjpzP0tCW5-WHGNMk-60" value="Extends" style="text;html=1;strokeColor=none;fillColor=none;align=center;verticalAlign=middle;whiteSpace=wrap;rounded=0;" vertex="1" parent="1">
          <mxGeometry x="810" y="318" width="60" height="30" as="geometry" />
        </mxCell>
        <mxCell id="wFfAjpzP0tCW5-WHGNMk-71" value="" style="edgeStyle=orthogonalEdgeStyle;rounded=0;orthogonalLoop=1;jettySize=auto;html=1;exitX=0.5;exitY=0;exitDx=0;exitDy=0;entryX=0.5;entryY=0;entryDx=0;entryDy=0;" edge="1" parent="1" source="wFfAjpzP0tCW5-WHGNMk-67" target="uBGwrHAVaLRpdLeFyeM2-30">
          <mxGeometry relative="1" as="geometry">
            <mxPoint x="950" y="210" as="targetPoint" />
            <Array as="points">
              <mxPoint x="960" y="225" />
            </Array>
          </mxGeometry>
        </mxCell>
        <mxCell id="wFfAjpzP0tCW5-WHGNMk-67" value="Extends" style="text;html=1;strokeColor=none;fillColor=none;align=center;verticalAlign=middle;whiteSpace=wrap;rounded=0;" vertex="1" parent="1">
          <mxGeometry x="930" y="318" width="60" height="30" as="geometry" />
        </mxCell>
      </root>
    </mxGraphModel>
  </diagram>
</mxfile>
